Hanif_Shallow_2_5_grf.mot
version=1
nRows=59
nColumns=19
inDegrees=yes
endheader
time	right_ground_force_vx	right_ground_force_vy	right_ground_force_vz	right_ground_force_px	right_ground_force_py	right_ground_force_pz	right_ground_torque_x	right_ground_torque_y	right_ground_torque_z	left_ground_force_vx	left_ground_force_vy	left_ground_force_vz	left_ground_force_px	left_ground_force_py	left_ground_force_pz	left_ground_torque_x	left_ground_torque_y	left_ground_torque_z
4.950000	7.017480	322.526000	51.667900	0.183458	0.000000	-1.451650	-17.447600	5.030430	-4.727380	5.359200	333.678000	-51.429000	0.198289	0.000000	-0.959220	18.676300	-5.562200	0.226246
4.955000	6.795890	324.970000	51.536900	0.183990	0.000000	-1.452380	-17.348200	4.860430	-4.620740	5.247780	329.996000	-51.256400	0.198722	0.000000	-0.960602	18.924600	-5.634880	0.396329
4.960000	6.741070	322.468000	51.446800	0.183764	0.000000	-1.452690	-17.114200	4.848810	-4.652540	4.994070	331.568000	-50.881600	0.199050	0.000000	-0.959831	18.764900	-5.538460	0.483883
4.965000	6.567120	323.165000	51.814400	0.183513	0.000000	-1.451920	-17.402000	4.843970	-4.745200	4.319040	330.798000	-50.740500	0.198663	0.000000	-0.959671	18.677300	-5.613500	0.370746
4.970000	6.351610	322.619000	52.006700	0.183745	0.000000	-1.452120	-17.311800	4.856230	-4.652760	4.552970	332.321000	-51.211700	0.198662	0.000000	-0.960545	19.051300	-5.603000	0.367900
4.975000	6.319860	322.083000	52.189600	0.183918	0.000000	-1.452290	-17.226000	4.858350	-4.583370	4.188080	333.336000	-51.761400	0.199143	0.000000	-0.960579	19.126500	-5.584050	0.537007
4.980000	6.817310	325.218000	52.837100	0.183721	0.000000	-1.452130	-17.442300	4.966510	-4.686690	3.615180	333.924000	-52.143900	0.199461	0.000000	-0.960540	19.156000	-5.577560	0.654072
4.985000	7.104520	326.843000	52.883400	0.184141	0.000000	-1.452780	-17.314400	4.930570	-4.582650	3.855500	335.740000	-52.959400	0.199609	0.000000	-0.960149	19.125800	-5.576400	0.710305
4.990000	8.015090	329.781000	53.791400	0.184621	0.000000	-1.452070	-17.692500	5.125870	-4.441050	3.676720	337.233000	-53.496400	0.200096	0.000000	-0.959957	19.148700	-5.632160	0.893443
4.995000	8.307130	333.080000	54.426500	0.185005	0.000000	-1.452190	-17.827800	5.123800	-4.363590	4.289860	338.588000	-54.493600	0.200275	0.000000	-0.960948	19.551800	-5.650900	0.964977
5.000000	8.527650	336.475000	54.892400	0.185119	0.000000	-1.451910	-18.100100	5.212580	-4.365300	3.823340	341.424000	-54.900200	0.200562	0.000000	-0.960289	19.499100	-5.621450	1.065640
5.005000	8.327500	340.266000	55.598900	0.186290	0.000000	-1.451930	-18.300100	5.202970	-4.013090	3.854960	342.005000	-54.980900	0.201926	0.000000	-0.961056	19.793900	-5.586250	1.537750
5.010000	8.182620	343.202000	56.302600	0.186545	0.000000	-1.451560	-18.586800	5.255380	-3.952820	3.837190	343.383000	-55.903700	0.202689	0.000000	-0.961545	20.041500	-5.607850	1.824320
5.015000	8.088710	347.100000	56.760800	0.187453	0.000000	-1.451070	-18.970500	5.206770	-3.692870	3.386520	346.466000	-56.263200	0.203170	0.000000	-0.961205	20.112100	-5.538300	1.994650
5.020000	7.739330	351.160000	57.906800	0.187531	0.000000	-1.451650	-18.996300	5.234510	-3.703750	3.074060	350.873000	-57.171400	0.203967	0.000000	-0.961081	20.329600	-5.581540	2.309160
5.025000	8.021770	355.007000	59.064900	0.188387	0.000000	-1.450810	-19.498800	5.321380	-3.425070	2.364990	353.491000	-57.693800	0.205374	0.000000	-0.961659	20.697700	-5.476050	2.821290
5.030000	8.271730	357.452000	59.965000	0.189001	0.000000	-1.450770	-19.648300	5.218760	-3.243470	1.866170	357.001000	-58.867300	0.205639	0.000000	-0.962598	21.246900	-5.428280	2.944760
5.035000	8.288390	360.431000	60.655000	0.189577	0.000000	-1.449940	-20.112700	5.209050	-3.064660	1.594880	360.725000	-60.164200	0.206245	0.000000	-0.961775	21.176300	-5.415100	3.203010
5.040000	8.381400	365.437000	62.246000	0.189920	0.000000	-1.450400	-20.217600	5.433820	-2.944390	1.032530	363.728000	-61.335000	0.207819	0.000000	-0.962631	21.673200	-5.352840	3.817100
5.045000	8.785360	369.618000	63.800800	0.191041	0.000000	-1.449840	-20.655600	5.440490	-2.556270	0.468606	367.737000	-62.660400	0.208060	0.000000	-0.962145	21.742600	-5.238210	3.937680
5.050000	8.774560	372.119000	64.056100	0.191346	0.000000	-1.449380	-20.968100	5.381480	-2.475020	-0.062878	372.072000	-63.767700	0.209232	0.000000	-0.962118	21.997200	-5.229880	4.432960
5.055000	8.260930	376.531000	64.586500	0.192276	0.000000	-1.449940	-21.009300	5.492170	-2.131400	-0.724777	375.050000	-64.861900	0.210028	0.000000	-0.962542	22.342300	-5.115150	4.765410
5.060000	8.548290	381.766000	66.166100	0.192481	0.000000	-1.449370	-21.517900	5.523500	-2.083180	-1.068550	377.132000	-66.014500	0.209854	0.000000	-0.962773	22.558800	-5.153390	4.743250
5.065000	8.342720	385.216000	67.212300	0.193301	0.000000	-1.449960	-21.489700	5.437130	-1.792060	-1.740200	380.139000	-66.960700	0.210587	0.000000	-0.963028	22.845900	-5.101990	5.066650
5.070000	8.632260	387.650000	68.296000	0.193575	0.000000	-1.449320	-21.868300	5.519880	-1.681710	-1.529170	382.170000	-68.039300	0.210611	0.000000	-0.962145	22.626700	-5.051950	5.099340
5.075000	8.374110	389.916000	69.089000	0.194348	0.000000	-1.449810	-21.809800	5.566310	-1.370050	-1.217200	384.439000	-69.152600	0.210688	0.000000	-0.962077	22.730300	-5.078890	5.168460
5.080000	8.608450	391.176000	70.518700	0.194919	0.000000	-1.449010	-22.191700	5.488490	-1.151060	-1.040110	385.358000	-70.166000	0.211064	0.000000	-0.962284	22.861400	-4.998860	5.326260
5.085000	8.360950	393.135000	71.581800	0.195602	0.000000	-1.449220	-22.224300	5.456500	-0.879183	-0.697398	385.128000	-71.061800	0.211291	0.000000	-0.962925	23.089300	-4.960600	5.419610
5.090000	8.610380	392.686000	72.048600	0.195479	0.000000	-1.448820	-22.354900	5.405360	-0.933794	-0.881498	385.166000	-72.027300	0.211916	0.000000	-0.962702	23.008800	-4.971390	5.689690
5.095000	8.788730	391.968000	72.785000	0.196430	0.000000	-1.449140	-22.183100	5.372290	-0.542757	-0.964528	385.172000	-72.398600	0.212335	0.000000	-0.962449	22.912800	-4.911870	5.852800
5.100000	8.593270	391.386000	73.386900	0.197273	0.000000	-1.448350	-22.460200	5.370120	-0.190756	-1.071850	384.422000	-72.802800	0.212864	0.000000	-0.962892	23.039700	-4.772960	6.038510
5.105000	8.419230	392.123000	73.662600	0.197818	0.000000	-1.448150	-22.583600	5.263900	0.011587	-1.402280	383.476000	-73.007900	0.214322	0.000000	-0.963600	23.260000	-4.703720	6.602770
5.110000	8.785510	390.788000	73.542500	0.198205	0.000000	-1.448350	-22.426800	5.223360	0.161455	-1.999110	381.477000	-73.196500	0.214740	0.000000	-0.963521	23.118000	-4.643020	6.744190
5.115000	8.446880	389.542000	73.766700	0.199431	0.000000	-1.447890	-22.536600	5.189560	0.660024	-1.825970	381.635000	-73.627100	0.215432	0.000000	-0.963046	22.943700	-4.570870	7.011730
5.120000	8.530780	388.488000	73.701800	0.200157	0.000000	-1.446620	-22.968700	5.092700	0.933386	-2.322350	380.160000	-74.022800	0.215982	0.000000	-0.962910	22.811000	-4.477120	7.204760
5.125000	8.190400	385.234000	73.546900	0.200779	0.000000	-1.446980	-22.639900	5.000070	1.173280	-2.609020	375.536000	-73.696800	0.216291	0.000000	-0.963446	22.739300	-4.355460	7.239290
5.130000	7.834780	383.009000	73.185200	0.201385	0.000000	-1.446470	-22.708200	4.816390	1.380970	-2.831970	372.526000	-73.832900	0.217541	0.000000	-0.963624	22.627300	-4.240480	7.665450
5.135000	7.447860	379.564000	72.858500	0.202757	0.000000	-1.446460	-22.514200	4.603250	1.883610	-3.664960	370.019000	-74.014100	0.218121	0.000000	-0.963091	22.291600	-4.174650	7.852360
5.140000	7.256730	374.179000	72.368500	0.203017	0.000000	-1.446210	-22.287100	4.548580	1.967080	-3.485680	365.928000	-73.881300	0.218597	0.000000	-0.964066	22.399400	-4.047290	7.942870
5.145000	6.886330	372.113000	72.231800	0.203901	0.000000	-1.445660	-22.375800	4.364380	2.272710	-4.124740	360.940000	-73.281400	0.219114	0.000000	-0.963833	22.020100	-3.868810	8.019720
5.150000	6.843910	366.844000	71.639900	0.204846	0.000000	-1.445190	-22.229200	4.260760	2.596430	-4.033230	356.395000	-72.961400	0.219853	0.000000	-0.964212	21.877900	-3.812380	8.203140
5.155000	6.780590	361.288000	70.691600	0.205941	0.000000	-1.444860	-22.011600	4.121560	2.953730	-4.245060	352.363000	-72.465000	0.220812	0.000000	-0.964459	21.721400	-3.666370	8.451160
5.160000	6.490190	356.008000	70.035100	0.206383	0.000000	-1.444210	-21.923600	3.952670	3.059180	-4.761030	347.084000	-71.714900	0.221382	0.000000	-0.965547	21.783200	-3.579360	8.539180
5.165000	5.938780	351.715000	69.368600	0.207014	0.000000	-1.444270	-21.645900	3.719500	3.224250	-5.072310	343.678000	-71.049300	0.221984	0.000000	-0.964492	21.209300	-3.272070	8.619270
5.170000	5.638490	346.451000	68.544900	0.208243	0.000000	-1.443700	-21.522000	3.639400	3.618230	-5.429830	339.573000	-70.281500	0.223217	0.000000	-0.965290	21.235600	-3.266900	8.967880
5.175000	5.846630	343.445000	67.773900	0.209120	0.000000	-1.443250	-21.488800	3.473560	3.867340	-5.564150	332.465000	-69.572600	0.223637	0.000000	-0.966009	21.034000	-3.123250	8.929400
5.180000	5.103900	338.478000	66.925400	0.209605	0.000000	-1.442530	-21.429300	3.347130	3.976080	-5.774360	325.998000	-68.525000	0.224543	0.000000	-0.966105	20.662900	-3.073610	9.077010
5.185000	4.916090	334.502000	66.554600	0.210875	0.000000	-1.442160	-21.301700	3.206100	4.357120	-6.035250	322.335000	-67.473700	0.225299	0.000000	-0.965874	20.360000	-2.902660	9.199030
5.190000	4.995300	327.429000	66.070900	0.211867	0.000000	-1.441570	-21.043200	3.000390	4.584260	-5.663970	317.504000	-66.346400	0.225704	0.000000	-0.966342	20.197700	-2.779820	9.173390
5.195000	5.021730	323.786000	65.451500	0.212487	0.000000	-1.441480	-20.837000	2.869310	4.722860	-5.833480	310.419000	-65.189100	0.226936	0.000000	-0.967005	19.957400	-2.614290	9.357510
5.200000	5.003700	317.841000	64.224700	0.213080	0.000000	-1.440550	-20.751200	2.815270	4.829660	-5.881020	305.853000	-64.208200	0.227270	0.000000	-0.967426	19.797100	-2.669120	9.348050
5.205000	4.867460	313.218000	64.469400	0.213881	0.000000	-1.440790	-20.373000	2.693690	5.021040	-6.014250	298.118000	-63.330200	0.228676	0.000000	-0.968608	19.653100	-2.458110	9.540600
5.210000	5.094930	308.273000	63.643300	0.215060	0.000000	-1.439650	-20.400500	2.550960	5.297250	-5.841280	294.302000	-61.799800	0.229359	0.000000	-0.968177	19.273200	-2.408200	9.607170
5.215000	4.900500	304.853000	63.234600	0.215947	0.000000	-1.439410	-20.248700	2.430380	5.507170	-5.776050	288.768000	-61.135600	0.229594	0.000000	-0.967708	18.776200	-2.350220	9.505610
5.220000	5.250710	300.969000	62.560700	0.216588	0.000000	-1.439230	-20.041300	2.387440	5.631440	-5.606980	284.303000	-60.460900	0.230413	0.000000	-0.969259	18.926400	-2.294660	9.604630
5.225000	5.267080	296.063000	61.406200	0.217715	0.000000	-1.438760	-19.855000	2.258140	5.865270	-5.462250	279.158000	-59.535000	0.231597	0.000000	-0.968985	18.507700	-2.225120	9.773200
5.230000	5.115760	292.535000	60.624400	0.218320	0.000000	-1.438700	-19.637000	2.165650	5.966720	-5.132080	273.899000	-58.572300	0.231821	0.000000	-0.968602	18.048500	-2.075330	9.629980
5.235000	4.659350	288.214000	60.259400	0.219728	0.000000	-1.438610	-19.377100	1.930000	6.272400	-5.395720	269.387000	-57.757200	0.232770	0.000000	-0.969503	18.000600	-2.023200	9.744420
5.240000	4.634420	282.903000	60.203800	0.220717	0.000000	-1.437680	-19.281600	1.874930	6.457800	-5.248110	263.964000	-56.827500	0.233511	0.000000	-0.969836	17.725500	-1.928520	9.746290
